<svg xmlns="http://www.w3.org/2000/svg" viewBox="0 0 96.9 153.89"><defs><style>.cls-1{fill:#fff;}.cls-2{fill:#b0b0b0;}.cls-3{fill:#231f20;}.cls-4{fill:#ba952d;}</style></defs><title>Asset 1</title><g id="Layer_2" data-name="Layer 2"><g id="Layer_1-2" data-name="Layer 1"><rect class="cls-1" x="0.01" y="89.6" width="96.89" height="9.51"/><polygon class="cls-2" points="96.89 21.65 78.26 10.02 71.3 13.2 48.45 0 30.56 9.73 20.96 5.96 0.01 18.77 0 88.12 96.88 86.14 96.89 21.65"/><polygon class="cls-1" points="3.26 18.8 20.93 8.19 29.38 11.45 20.93 11.14 3.26 18.8"/><polygon class="cls-1" points="34.87 9.44 48.49 2.19 59.51 8.42 48.91 7.8 50.12 6 40.51 9.1 45.05 5.55 34.87 9.44"/><polygon class="cls-1" points="73.61 14.11 77.96 12.08 87.49 17.51 78.68 14.33 73.61 14.11"/><rect class="cls-3" x="28.25" y="68.17" width="40.65" height="20.79"/><circle class="cls-3" cx="64.8" cy="62.61" r="11.61"/><path class="cls-4" d="M52.54,62.61A12.26,12.26,0,1,0,64.8,50.34,12.27,12.27,0,0,0,52.54,62.61Zm1.3,0a11,11,0,1,1,11,11A11,11,0,0,1,53.84,62.61Z"/><polygon class="cls-3" points="41.95 52.34 41.95 47.19 28.73 47.19 28.73 52.34 23.48 52.34 23.48 85.88 46.86 85.88 46.86 52.34 41.95 52.34"/><path class="cls-4" d="M41.95,46.54H28.08v5.16H22.83V86.53H47.51V51.69H42.6V46.54Zm-.65,1.3V53h4.92V85.23H24.13V53h5.25V47.83Z"/><polygon class="cls-3" points="33.23 70.15 33.23 67.79 15.85 67.79 15.85 71.8 8.94 71.8 8.94 90.77 39.7 90.77 39.7 70.15 33.23 70.15"/><path class="cls-4" d="M33.23,67.14h-18v4H8.29V91.42H40.35V69.5H33.88V67.14Zm-.65,1.3V70.8H39V90.12H9.58V72.45H16.5v-4Z"/><polygon class="cls-3" points="84.11 71.66 84.11 65.68 68.41 65.68 68.41 71.66 64.52 71.66 64.52 90.46 88.32 90.46 88.32 71.66 84.11 71.66"/><path class="cls-4" d="M84.11,65H67.76v6H63.87v20.1H89V71H84.76V65Zm-.65,1.3v6h4.22v17.5H65.17V72.31h3.89v-6Z"/><polygon class="cls-3" points="57.8 63.89 57.8 59.15 39.96 59.15 39.96 63.89 32.86 63.89 32.86 90.81 64.44 90.81 64.44 63.89 57.8 63.89"/><path class="cls-4" d="M57.8,58.5H39.31v4.74H32.21V91.46H65.09V63.24H58.45V58.5Zm-.65,1.3v4.74h6.64V90.16H33.51V64.54h7.09V59.79Z"/><path class="cls-3" d="M48.75,27.82C21.69,28.2,0,43.59,0,43.59V90.42H9.43V51.55s19.9-12.8,40-12.8c20.4,0,38.45,12.85,38.48,12.56V91.69l9-.34-.07-48.12S75.63,27.29,48.75,27.82"/><path class="cls-4" d="M90.95,90.07a12.39,12.39,0,0,1-6-1.83,12.38,12.38,0,0,0-6-1.83,13.92,13.92,0,0,0-6.21,1.83,14.26,14.26,0,0,1-6.09,1.83,14.25,14.25,0,0,1-6.09-1.83,13.35,13.35,0,0,0-6.09-1.83,12.82,12.82,0,0,0-6,1.86,13.56,13.56,0,0,1-6.11,1.79,12.39,12.39,0,0,1-6-1.83,12.38,12.38,0,0,0-6-1.83,13.91,13.91,0,0,0-6.21,1.83,14.26,14.26,0,0,1-6.09,1.83A14.25,14.25,0,0,1,12,88.24a13.35,13.35,0,0,0-6.09-1.83A12.33,12.33,0,0,0,0,88.24V92.3a12.33,12.33,0,0,1,5.93-1.83,12.58,12.58,0,0,1,6,1.83,13.71,13.71,0,0,0,6.21,1.83,12.94,12.94,0,0,0,6.09-1.83,13.34,13.34,0,0,1,6.09-1.83,12.58,12.58,0,0,1,6,1.83,13.28,13.28,0,0,0,6.21,1.83,12.29,12.29,0,0,0,6.05-1.83h0a12.76,12.76,0,0,1,6-1.83,12.58,12.58,0,0,1,6,1.83,13.71,13.71,0,0,0,6.21,1.83,12.93,12.93,0,0,0,6.09-1.83,13.34,13.34,0,0,1,6.09-1.83,12.58,12.58,0,0,1,6,1.83,13.28,13.28,0,0,0,6.21,1.83,11,11,0,0,0,5.83-1.83V88.24A12.25,12.25,0,0,1,90.95,90.07Z"/><path class="cls-2" d="M90.95,90.95a12.39,12.39,0,0,1-6-1.83,12.38,12.38,0,0,0-6-1.83,13.92,13.92,0,0,0-6.21,1.83,14.26,14.26,0,0,1-6.09,1.83,14.25,14.25,0,0,1-6.09-1.83,13.35,13.35,0,0,0-6.09-1.83,12.84,12.84,0,0,0-6,1.86,13.56,13.56,0,0,1-6.11,1.79,12.39,12.39,0,0,1-6-1.83,12.38,12.38,0,0,0-6-1.83,13.91,13.91,0,0,0-6.21,1.83,14.26,14.26,0,0,1-6.09,1.83A14.25,14.25,0,0,1,12,89.12a13.35,13.35,0,0,0-6.09-1.83A12.33,12.33,0,0,0,0,89.12v4.06a12.33,12.33,0,0,1,5.93-1.83,12.58,12.58,0,0,1,6,1.83A13.71,13.71,0,0,0,18.12,95a12.93,12.93,0,0,0,6.09-1.83,13.34,13.34,0,0,1,6.09-1.83,12.58,12.58,0,0,1,6,1.83A13.28,13.28,0,0,0,42.49,95a12.29,12.29,0,0,0,6.05-1.83h0a12.76,12.76,0,0,1,6-1.83,12.58,12.58,0,0,1,6,1.83A13.7,13.7,0,0,0,66.7,95a12.93,12.93,0,0,0,6.09-1.83,13.34,13.34,0,0,1,6.09-1.83,12.58,12.58,0,0,1,6,1.83A13.28,13.28,0,0,0,91.07,95a11,11,0,0,0,5.83-1.83V89.12A12.25,12.25,0,0,1,90.95,90.95Z"/><polygon class="cls-1" points="48.37 30.03 48.7 24.32 51.01 29 49.32 24.06 54.7 28.98 49.8 23.59 54.74 25.27 50.06 22.96 60.11 22.68 50.06 22.29 54.74 19.99 49.8 21.67 54.38 16.67 54.42 16.63 54.39 16.65 54.7 16.31 49.32 21.19 51.01 16.25 48.7 20.94 48.37 10.94 48.37 11.03 48.37 11.03 48.03 20.94 45.73 16.25 47.41 21.19 42.03 16.31 46.93 21.67 41.99 19.99 46.67 22.29 36.63 22.68 46.67 22.96 41.99 25.27 46.93 23.59 42.03 28.98 42.1 28.93 42.09 28.93 42.13 28.9 47.41 24.06 45.73 29 48.03 24.32 48.37 30.03"/><rect class="cls-3" x="0.01" y="97.21" width="96.89" height="56.69"/><path class="cls-4" d="M9.32,117.37c0-.5.11-.65.49-.65h1.66c1.17,0,5,1.56,5,7.51,0,4.54-2.72,6.3-5.75,6.3H9.32Zm3.14,29.39V145.1h-1.7c-1.21,0-1.44-.2-1.44-6.86v-6h2.34c2.68,7,5.48,13,6.58,14.17.38.4,1.06.4,1.89.4h4.31V145.1c-1.47,0-1.74-.4-2.76-1.87-1.59-2.37-2.87-5.14-6.28-12,3.14-.61,5.41-3.38,5.41-7.76,0-4.13-2.57-8.67-7.94-8.67H1.79v1.66H3.5c1.21,0,1.44.2,1.44,6.86v21c0,.5-.08.8-.57.8H2.66v1.66Z"/><path class="cls-4" d="M24.4,145.1h1.7c.49,0,.57-.3.57-.8v-21c0-6.65-.23-6.86-1.44-6.86h-1.7v-1.66H42.06c-.42,4.79-.45,5.14-.83,5.14s-.57-.4-.61-1.11-2-2.07-6.35-2.07H31.55c-.38,0-.49.15-.49.65v11h3.52c4,0,4.16-.61,4.16-2.07v-1.76h1.13v8.87H38.73v-1.81c0-.86-.15-1.41-4.16-1.41H31.06v3.68c0,10.74.15,10.89,1.44,10.89h1.32c2,0,7.18,0,8.36-2.77.15-.35.23-.66.57-.66s.42.25.42.61a40.51,40.51,0,0,1-1,4.79H24.4Z"/><path class="cls-4" d="M65.12,137.59V126.9c0-2.77,0-6.4-.26-8.82-.19-1.56-.45-1.66-1.47-1.66H61.87v-1.66h7.07v1.66H67.88c-1,0-1.17,0-1.17.66v29.59c0,.35-.11.6-.38.6s-.53-.4-1.13-1.31L48.49,120.65v14c0,2.77,0,6.4.27,8.82.19,1.56.45,1.66,1.47,1.66h1.51v1.66H44.67V145.1h1.06c1,0,1.17,0,1.17-.65V121.51c0-2.82-.83-5.09-2.31-5.09H43.5v-1.66H50Z"/><path class="cls-4" d="M82.48,145.91c-3.48,0-8.88-4-8.88-17s6.28-13.26,7.45-13.26c3.48,0,8.88,4,8.88,17S83.65,145.91,82.48,145.91Zm-1.1,1.81c7.75,0,12.93-7.76,12.93-17.8,0-9.78-4.8-16.13-12.17-16.13-7.75,0-12.93,7.76-12.93,17.79C69.21,141.37,74,147.72,81.38,147.72Z"/><path class="cls-1" d="M5.52,107.94c-.06-.42-.4-.57-.82-.57-.72,0-1.07.51-1.07,1.2s.29,1.24,1,1.24c.42,0,.8-.15.84-.61H6.68c0,1.12-1,1.39-2.12,1.39a1.85,1.85,0,0,1-2.06-2c0-1.42.88-2,2.24-2,1,0,1.9.34,1.92,1.35Z"/><path class="cls-1" d="M17.83,106.69h1.1v3.79h-1.1Z"/><path class="cls-1" d="M31.45,107.47H30v-.78h4v.78H32.56v3h-1.1Z"/><path class="cls-1" d="M46.44,109.13l-1.71-2.45h1.36l1,1.62,1-1.62h1.23l-1.71,2.45v1.35h-1.1Z"/><path class="cls-1" d="M73.71,108.59c0-.67.28-1.22,1.12-1.22s1.12.55,1.12,1.22-.28,1.22-1.12,1.22S73.71,109.26,73.71,108.59Zm-1.13,0c0,1.15.67,2,2.25,2s2.25-.85,2.25-2-.67-2-2.25-2S72.58,107.44,72.58,108.59Z"/><path class="cls-1" d="M88.37,106.69h3.07v.81h-2v.79h1.86v.78H89.47v1.42h-1.1Z"/><path class="cls-2" d="M90.95,96.88a12.39,12.39,0,0,1-6-1.83,12.38,12.38,0,0,0-6-1.83,13.92,13.92,0,0,0-6.21,1.83,14.26,14.26,0,0,1-6.09,1.83,14.26,14.26,0,0,1-6.09-1.83,13.35,13.35,0,0,0-6.09-1.83,12.84,12.84,0,0,0-6,1.86,13.55,13.55,0,0,1-6.11,1.79,12.39,12.39,0,0,1-6-1.83,12.38,12.38,0,0,0-6-1.83,13.91,13.91,0,0,0-6.21,1.83,14.26,14.26,0,0,1-6.09,1.83A14.26,14.26,0,0,1,12,95.05a13.35,13.35,0,0,0-6.09-1.83A12.33,12.33,0,0,0,0,95.05v4.06a12.33,12.33,0,0,1,5.93-1.83,12.58,12.58,0,0,1,6,1.83,13.7,13.7,0,0,0,6.21,1.83,12.93,12.93,0,0,0,6.09-1.83,13.34,13.34,0,0,1,6.09-1.83,12.58,12.58,0,0,1,6,1.83,13.28,13.28,0,0,0,6.21,1.83,12.28,12.28,0,0,0,6.05-1.83h0a12.77,12.77,0,0,1,6-1.83,12.58,12.58,0,0,1,6,1.83,13.7,13.7,0,0,0,6.21,1.83,12.92,12.92,0,0,0,6.09-1.83,13.34,13.34,0,0,1,6.09-1.83,12.58,12.58,0,0,1,6,1.83,13.28,13.28,0,0,0,6.21,1.83,11,11,0,0,0,5.83-1.83V95.05A12.26,12.26,0,0,1,90.95,96.88Z"/><path class="cls-4" d="M5.36,47.56l.46-.29c.39-.25.53-.17,1,.61s.52,1,.11,1.23l-.44.28Zm.78,2.83,1.12-.7c1-.65,1-1.1.26-2.21-.55-.88-.79-1-1.42-.75h0c.45-.37.51-.64-.13-1.65s-.93-1.15-1.81-.6l-1.24.78ZM4,45.35l.33-.21c.46-.29.64-.2,1,.38.53.84.54,1,.11,1.22L5,47Z"/><path class="cls-4" d="M6,43.33l.73-.43,3.08,5.24-.73.43Z"/><path class="cls-4" d="M10.08,42.88l-.15-.27c-.21-.38-.52-.5-.81-.35s-.34.59,0,1.16l1.48,2.69c.23.43.59.59.89.42a2.43,2.43,0,0,0,.44-.31L11,44.65l-.49.27-.34-.62,1.23-.67,1.47,2.68a7.1,7.1,0,0,1-1.14.8c-.94.51-1.51.19-2-.64L8.33,43.77c-.55-1-.47-1.57.48-2.09.79-.43,1.36-.37,1.73.31l.27.49Z"/><path class="cls-4" d="M13.33,41.19l-.14-.28c-.19-.38-.5-.52-.79-.37s-.36.58-.07,1.16l1.38,2.74c.22.44.57.61.88.45a2.49,2.49,0,0,0,.46-.3L14.23,43l-.5.25-.32-.63L14.67,42,16,44.71a7.05,7.05,0,0,1-1.17.76c-1,.48-1.52.13-1.94-.71L11.55,42c-.51-1-.41-1.58.56-2.07.8-.41,1.37-.32,1.72.37l.25.5Z"/><path class="cls-4" d="M14.28,38.93l2.08-1,.3.64-1.31.61.8,1.73,1.24-.57.3.64-1.24.57.86,1.87,1.32-.61.3.64-2.08,1Z"/><path class="cls-4" d="M18.66,41.68l.78-.33.19.46c.16.37.4.55.71.41s.39-.5.24-.86-.29-.62-1.43-1.08A2.52,2.52,0,0,1,17.51,39a1.22,1.22,0,0,1,.72-1.85,1.43,1.43,0,0,1,1-.07c.18.07.36.22.53.62l.22.53-.73.31-.19-.44c-.13-.32-.35-.45-.65-.32s-.39.38-.21.81.34.58,1.37,1,1.35.68,1.63,1.36c.37.88.24,1.52-.68,1.92-.71.3-1.33.21-1.62-.49Z"/><path class="cls-4" d="M20.07,36.4l2.67-1L23,36l-.94.36,1.92,5-.79.3-1.92-5-.94.36Z"/><path class="cls-4" d="M25.28,34.49l.8-.26,1.65,5.11,1.35-.43.22.67-2.15.69Z"/><path class="cls-4" d="M28.15,33.59l.81-.24,1.71,5.83-.81.24Z"/><path class="cls-4" d="M29.65,33.14l2.77-.72.18.68-1,.25L33,38.56l-.81.21-1.36-5.2-1,.25Z"/><path class="cls-4" d="M33,32.29l2.8-.61.15.69-1,.21,1.14,5.25-.82.18-1.14-5.25-1,.21Z"/><path class="cls-4" d="M36.54,31.54l.83-.15.93,5.29,1.39-.24.12.7-2.22.39Z"/><path class="cls-4" d="M39.59,31l2.27-.3.09.7-1.44.19.25,1.89,1.35-.18.09.7-1.35.18.27,2,1.44-.19.09.7-2.27.3Z"/><path class="cls-4" d="M44.8,32c0-.85.19-1.61,1.33-1.68.83,0,1.24.35,1.28,1l0,.61-.79,0,0-.42c0-.39-.17-.62-.52-.6s-.5.34-.46,1.07l.17,3c0,.71.27.83.54.81s.5-.25.47-.75l0-.42.79,0,0,.67c0,.64-.2,1.14-1.17,1.2S45,36,45,35.07Z"/><path class="cls-4" d="M48.17,30.29H49l.11,6.08-.84,0Z"/><path class="cls-4" d="M50,30.25l2.86.1,0,.71-1,0-.2,5.37-.84,0L51,31l-1,0Z"/><path class="cls-4" d="M53.28,30.38l.84.08.49,2.62h0l1.07-2.47.74.07-1.5,3.46-.23,2.48-.84-.08.23-2.48Z"/><path class="cls-4" d="M59.19,31.06l.83.13-.94,6-.83-.13Z"/><path class="cls-4" d="M61,31.35l1.14.22v5.15h0l1-5,.78.15-1.16,6-1.19-.23,0-5.28h0l-1,5.09-.73-.14Z"/><path class="cls-4" d="M66.29,32.45l2.77.73-.18.68-1-.26-1.36,5.2-.81-.21,1.36-5.2-1-.26Z"/><path class="cls-4" d="M69.84,33.4l.8.25-.77,2.49,1.07.33L71.72,34l.8.25L70.73,40l-.8-.25.82-2.64-1.07-.33-.82,2.64-.8-.25Z"/><path class="cls-4" d="M73.53,34.58l2.16.77-.24.67-1.37-.49-.64,1.79,1.28.46-.24.67L73.21,38l-.69,1.94,1.37.49-.24.67L71.5,40.3Z"/><path class="cls-4" d="M77.82,36.13l.79.35L77.14,41.3h0L79.8,37l1,.46-1.52,4.8h0L82,38l.72.32-3.46,5.12L78.35,43l1.54-4.88h0l-2.71,4.36-.93-.41Z"/><path class="cls-4" d="M83.27,40.27c.27-.53.58-.69.92-.51s.4.52.13,1l-1.45,2.84c-.24.46-.57.6-.89.44s-.39-.51-.15-1Zm-2.18,2.41c-.43.84-.38,1.5.58,2s1.62,0,2-.77l1.4-2.74a1.27,1.27,0,0,0-.59-2c-1-.52-1.61,0-2,.78Z"/><path class="cls-4" d="M87.05,41.41l.35.2c.45.26.45.36,0,1.14s-.6.85-1.17.52L86,43.16Zm-3.4,4.24.73.42,1.31-2.29.25.14c.48.28.5.46.21,1l-.68,1.19a1.06,1.06,0,0,0-.18.53L86,47a4,4,0,0,1,.34-.7L87,45.14c.28-.5.26-.85-.2-1.18h0c.7.16,1-.09,1.38-.8.66-1.15.71-1.5-.35-2.11l-1.13-.65Z"/><path class="cls-4" d="M89.89,42.25l.71.45-2.86,4.54,1.2.75-.38.6-1.91-1.2Z"/><path class="cls-4" d="M92.8,45l.28.19c.59.41.49.71,0,1.45l-1.19,1.72c-.59.86-.88,1.06-1.39.71l-.33-.23ZM89,48.92l1,.7c1.09.76,1.6.51,2.49-.77l1-1.49c1-1.45,1.18-1.89.05-2.67l-1.12-.77Z"/><path class="cls-4" d="M90.76,150a1.79,1.79,0,1,1,1.8,1.84A1.78,1.78,0,0,1,90.76,150Zm1.8,2.21A2.21,2.21,0,1,0,90.32,150,2.2,2.2,0,0,0,92.56,152.19Zm-.47-2h.44l.67,1.1h.43l-.72-1.12a.66.66,0,0,0,.66-.7c0-.5-.3-.72-.9-.72h-1v2.54h.38Zm0-.33V149h.52c.27,0,.55.06.55.37s-.29.41-.62.41Z"/></g></g></svg>